<mxfile host="app.diagrams.net" modified="2023-05-09T21:03:55.685Z" agent="Mozilla/5.0 (Windows NT 10.0; Win64; x64) AppleWebKit/537.36 (KHTML, like Gecko) Chrome/112.0.0.0 Safari/537.36" etag="XL-DtE-3ZKJZLLmkWy3d" version="21.2.9" type="github">
  <diagram name="PÃ¡gina-1" id="O8hzqUghR0WcSN_hWC6z">
    <mxGraphModel dx="2150" dy="730" grid="1" gridSize="10" guides="1" tooltips="1" connect="1" arrows="1" fold="1" page="1" pageScale="1" pageWidth="827" pageHeight="1169" math="0" shadow="0">
      <root>
        <mxCell id="0" />
        <mxCell id="1" parent="0" />
        <mxCell id="KyBY0AKvl3MU2-mIpTpG-4" value="" style="rounded=0;whiteSpace=wrap;html=1;glass=0;fillColor=none;dashed=1;dashPattern=12 12;fontStyle=1;strokeWidth=2;labelBackgroundColor=#FFFFFF;labelBorderColor=none;" parent="1" vertex="1">
          <mxGeometry x="-60" y="115" width="170" height="210" as="geometry" />
        </mxCell>
        <mxCell id="KyBY0AKvl3MU2-mIpTpG-5" value="12 V" style="text;html=1;strokeColor=none;fillColor=none;align=center;verticalAlign=middle;whiteSpace=wrap;rounded=0;fontStyle=1;strokeWidth=2;labelBackgroundColor=#FFFFFF;labelBorderColor=none;" parent="1" vertex="1">
          <mxGeometry x="763.5" y="160" width="110" height="30" as="geometry" />
        </mxCell>
        <mxCell id="KyBY0AKvl3MU2-mIpTpG-6" value="" style="ellipse;whiteSpace=wrap;html=1;aspect=fixed;fontStyle=1;strokeWidth=2;labelBackgroundColor=#FFFFFF;labelBorderColor=none;" parent="1" vertex="1">
          <mxGeometry x="-15" y="180" width="80" height="80" as="geometry" />
        </mxCell>
        <mxCell id="KyBY0AKvl3MU2-mIpTpG-7" value="&lt;font style=&quot;font-size: 18px;&quot;&gt;AC&lt;/font&gt;" style="text;html=1;strokeColor=none;fillColor=none;align=center;verticalAlign=middle;whiteSpace=wrap;rounded=0;fontStyle=1;strokeWidth=2;labelBackgroundColor=#FFFFFF;labelBorderColor=none;" parent="1" vertex="1">
          <mxGeometry x="-5" y="205" width="60" height="30" as="geometry" />
        </mxCell>
        <mxCell id="KyBY0AKvl3MU2-mIpTpG-8" value="&lt;span&gt;FUENTE&lt;/span&gt;" style="text;html=1;strokeColor=none;fillColor=none;align=center;verticalAlign=middle;whiteSpace=wrap;rounded=0;fontStyle=1;strokeWidth=2;labelBackgroundColor=#FFFFFF;labelBorderColor=none;" parent="1" vertex="1">
          <mxGeometry x="-5" y="85" width="60" height="30" as="geometry" />
        </mxCell>
        <mxCell id="KyBY0AKvl3MU2-mIpTpG-11" value="" style="rounded=0;whiteSpace=wrap;html=1;glass=0;fillColor=none;dashed=1;dashPattern=12 12;fontStyle=1;strokeWidth=2;labelBackgroundColor=#FFFFFF;labelBorderColor=none;" parent="1" vertex="1">
          <mxGeometry x="162.5" y="365" width="170" height="110" as="geometry" />
        </mxCell>
        <mxCell id="KyBY0AKvl3MU2-mIpTpG-12" value="" style="rounded=1;whiteSpace=wrap;html=1;fontStyle=1;strokeWidth=2;labelBackgroundColor=#FFFFFF;labelBorderColor=none;" parent="1" vertex="1">
          <mxGeometry x="190" y="190" width="120" height="60" as="geometry" />
        </mxCell>
        <mxCell id="KyBY0AKvl3MU2-mIpTpG-13" value="RECTIFICADOR CONTROLADO" style="text;html=1;strokeColor=none;fillColor=none;align=center;verticalAlign=middle;whiteSpace=wrap;rounded=0;fontStyle=1;strokeWidth=2;labelBackgroundColor=#FFFFFF;labelBorderColor=none;" parent="1" vertex="1">
          <mxGeometry x="217.5" y="205" width="65" height="30" as="geometry" />
        </mxCell>
        <mxCell id="KyBY0AKvl3MU2-mIpTpG-14" value="" style="endArrow=classic;html=1;rounded=0;exitX=1.162;exitY=0.471;exitDx=0;exitDy=0;exitPerimeter=0;entryX=0;entryY=0.5;entryDx=0;entryDy=0;fontStyle=1;strokeWidth=2;labelBackgroundColor=#FFFFFF;labelBorderColor=none;" parent="1" source="KyBY0AKvl3MU2-mIpTpG-7" target="KyBY0AKvl3MU2-mIpTpG-12" edge="1">
          <mxGeometry width="50" height="50" relative="1" as="geometry">
            <mxPoint x="195" y="190" as="sourcePoint" />
            <mxPoint x="245" y="140" as="targetPoint" />
          </mxGeometry>
        </mxCell>
        <mxCell id="KyBY0AKvl3MU2-mIpTpG-15" value="AC" style="text;html=1;strokeColor=none;fillColor=none;align=center;verticalAlign=middle;whiteSpace=wrap;rounded=0;fontStyle=1;strokeWidth=2;labelBackgroundColor=#FFFFFF;labelBorderColor=none;" parent="1" vertex="1">
          <mxGeometry x="105" y="190" width="60" height="30" as="geometry" />
        </mxCell>
        <mxCell id="KyBY0AKvl3MU2-mIpTpG-18" value="RECTIFICADOR" style="text;html=1;strokeColor=none;fillColor=none;align=center;verticalAlign=middle;whiteSpace=wrap;rounded=0;fontStyle=1;strokeWidth=2;labelBackgroundColor=#FFFFFF;labelBorderColor=none;" parent="1" vertex="1">
          <mxGeometry x="217.5" y="85" width="60" height="30" as="geometry" />
        </mxCell>
        <mxCell id="KyBY0AKvl3MU2-mIpTpG-19" value="" style="rounded=1;whiteSpace=wrap;html=1;fontStyle=1;strokeWidth=2;labelBackgroundColor=#FFFFFF;labelBorderColor=none;" parent="1" vertex="1">
          <mxGeometry x="187.5" y="390" width="120" height="60" as="geometry" />
        </mxCell>
        <mxCell id="KyBY0AKvl3MU2-mIpTpG-20" value="ARDUINO" style="text;html=1;strokeColor=none;fillColor=none;align=center;verticalAlign=middle;whiteSpace=wrap;rounded=0;fontStyle=1;strokeWidth=2;labelBackgroundColor=#FFFFFF;labelBorderColor=none;" parent="1" vertex="1">
          <mxGeometry x="217.5" y="405" width="60" height="30" as="geometry" />
        </mxCell>
        <mxCell id="KyBY0AKvl3MU2-mIpTpG-26" value="" style="endArrow=classic;html=1;rounded=0;entryX=0.452;entryY=1.034;entryDx=0;entryDy=0;entryPerimeter=0;fontStyle=1;strokeWidth=2;labelBackgroundColor=#FFFFFF;labelBorderColor=none;" parent="1" target="KyBY0AKvl3MU2-mIpTpG-12" edge="1">
          <mxGeometry width="50" height="50" relative="1" as="geometry">
            <mxPoint x="245" y="390" as="sourcePoint" />
            <mxPoint x="295" y="340" as="targetPoint" />
          </mxGeometry>
        </mxCell>
        <mxCell id="bAktfP8ZMkvanFYDNccY-1" value="&lt;font style=&quot;font-size: 8px;&quot;&gt;PWM&lt;/font&gt;" style="text;html=1;strokeColor=none;fillColor=none;align=center;verticalAlign=middle;whiteSpace=wrap;rounded=0;fontStyle=1;strokeWidth=2;labelBackgroundColor=#FFFFFF;labelBorderColor=none;" vertex="1" parent="1">
          <mxGeometry x="195" y="280" width="60" height="30" as="geometry" />
        </mxCell>
        <mxCell id="bAktfP8ZMkvanFYDNccY-3" value="" style="rounded=0;whiteSpace=wrap;html=1;glass=0;fillColor=none;dashed=1;dashPattern=12 12;fontStyle=1;strokeWidth=2;labelBackgroundColor=#FFFFFF;labelBorderColor=none;" vertex="1" parent="1">
          <mxGeometry x="162.5" y="120" width="170" height="210" as="geometry" />
        </mxCell>
        <mxCell id="bAktfP8ZMkvanFYDNccY-4" value="CONTROL" style="text;html=1;strokeColor=none;fillColor=none;align=center;verticalAlign=middle;whiteSpace=wrap;rounded=0;fontStyle=1;strokeWidth=2;labelBackgroundColor=#FFFFFF;labelBorderColor=none;" vertex="1" parent="1">
          <mxGeometry x="255" y="335" width="60" height="30" as="geometry" />
        </mxCell>
        <mxCell id="bAktfP8ZMkvanFYDNccY-6" value="" style="endArrow=classic;html=1;rounded=0;exitX=1;exitY=0.5;exitDx=0;exitDy=0;entryX=0;entryY=0.5;entryDx=0;entryDy=0;fontStyle=1;strokeWidth=2;labelBackgroundColor=#FFFFFF;labelBorderColor=none;" edge="1" parent="1" source="bAktfP8ZMkvanFYDNccY-21" target="bAktfP8ZMkvanFYDNccY-7">
          <mxGeometry width="50" height="50" relative="1" as="geometry">
            <mxPoint x="340" y="290" as="sourcePoint" />
            <mxPoint x="550" y="220" as="targetPoint" />
          </mxGeometry>
        </mxCell>
        <mxCell id="bAktfP8ZMkvanFYDNccY-7" value="MOTOR" style="ellipse;whiteSpace=wrap;html=1;aspect=fixed;fontStyle=1;strokeWidth=2;labelBackgroundColor=#FFFFFF;labelBorderColor=none;" vertex="1" parent="1">
          <mxGeometry x="620" y="180" width="80" height="80" as="geometry" />
        </mxCell>
        <mxCell id="bAktfP8ZMkvanFYDNccY-8" value="DC" style="text;html=1;strokeColor=none;fillColor=none;align=center;verticalAlign=middle;whiteSpace=wrap;rounded=0;fontStyle=1;strokeWidth=2;labelBackgroundColor=#FFFFFF;labelBorderColor=none;" vertex="1" parent="1">
          <mxGeometry x="340" y="205" width="30" height="15" as="geometry" />
        </mxCell>
        <mxCell id="bAktfP8ZMkvanFYDNccY-11" value="" style="endArrow=classic;html=1;rounded=0;fontStyle=1;strokeWidth=2;labelBackgroundColor=#FFFFFF;labelBorderColor=none;" edge="1" parent="1">
          <mxGeometry width="50" height="50" relative="1" as="geometry">
            <mxPoint x="700" y="220" as="sourcePoint" />
            <mxPoint x="780" y="220" as="targetPoint" />
          </mxGeometry>
        </mxCell>
        <mxCell id="bAktfP8ZMkvanFYDNccY-13" value="BATERIA&amp;nbsp;" style="rounded=0;whiteSpace=wrap;html=1;fontStyle=1;strokeWidth=2;labelBackgroundColor=#FFFFFF;labelBorderColor=none;" vertex="1" parent="1">
          <mxGeometry x="777" y="190" width="83" height="60" as="geometry" />
        </mxCell>
        <mxCell id="bAktfP8ZMkvanFYDNccY-14" value="&lt;span&gt;127 V | 60 Hz&amp;nbsp;&lt;/span&gt;" style="text;html=1;strokeColor=none;fillColor=none;align=center;verticalAlign=middle;whiteSpace=wrap;rounded=0;fontStyle=1;strokeWidth=2;labelBackgroundColor=#FFFFFF;labelBorderColor=none;" vertex="1" parent="1">
          <mxGeometry x="-30" y="140" width="110" height="30" as="geometry" />
        </mxCell>
        <mxCell id="bAktfP8ZMkvanFYDNccY-15" value="" style="endArrow=classic;html=1;rounded=0;exitX=0.5;exitY=1;exitDx=0;exitDy=0;fontStyle=1;strokeWidth=2;labelBackgroundColor=#FFFFFF;labelBorderColor=none;" edge="1" parent="1" source="bAktfP8ZMkvanFYDNccY-13">
          <mxGeometry width="50" height="50" relative="1" as="geometry">
            <mxPoint x="580" y="340" as="sourcePoint" />
            <mxPoint x="590" y="220" as="targetPoint" />
            <Array as="points">
              <mxPoint x="819" y="280" />
              <mxPoint x="590" y="280" />
            </Array>
          </mxGeometry>
        </mxCell>
        <mxCell id="bAktfP8ZMkvanFYDNccY-16" value="DINAMO" style="ellipse;whiteSpace=wrap;html=1;fontStyle=1;strokeWidth=2;labelBackgroundColor=#FFFFFF;labelBorderColor=none;" vertex="1" parent="1">
          <mxGeometry x="610" y="110" width="100" height="40" as="geometry" />
        </mxCell>
        <mxCell id="bAktfP8ZMkvanFYDNccY-17" value="" style="endArrow=classic;html=1;rounded=0;exitX=0.5;exitY=0;exitDx=0;exitDy=0;fontStyle=1;strokeWidth=2;labelBackgroundColor=#FFFFFF;labelBorderColor=none;" edge="1" parent="1" source="bAktfP8ZMkvanFYDNccY-7">
          <mxGeometry width="50" height="50" relative="1" as="geometry">
            <mxPoint x="620" y="150" as="sourcePoint" />
            <mxPoint x="660" y="150" as="targetPoint" />
          </mxGeometry>
        </mxCell>
        <mxCell id="bAktfP8ZMkvanFYDNccY-18" value="" style="endArrow=classic;html=1;rounded=0;exitX=1;exitY=0.5;exitDx=0;exitDy=0;fontStyle=1;strokeWidth=2;labelBackgroundColor=#FFFFFF;labelBorderColor=none;" edge="1" parent="1" source="bAktfP8ZMkvanFYDNccY-16">
          <mxGeometry width="50" height="50" relative="1" as="geometry">
            <mxPoint x="727" y="125" as="sourcePoint" />
            <mxPoint x="790" y="190" as="targetPoint" />
            <Array as="points">
              <mxPoint x="790" y="130" />
            </Array>
          </mxGeometry>
        </mxCell>
        <mxCell id="bAktfP8ZMkvanFYDNccY-22" value="" style="endArrow=classic;html=1;rounded=0;exitX=1;exitY=0.5;exitDx=0;exitDy=0;fontStyle=1;strokeWidth=2;labelBackgroundColor=#FFFFFF;labelBorderColor=none;" edge="1" parent="1" source="KyBY0AKvl3MU2-mIpTpG-12" target="bAktfP8ZMkvanFYDNccY-21">
          <mxGeometry width="50" height="50" relative="1" as="geometry">
            <mxPoint x="340" y="220" as="sourcePoint" />
            <mxPoint x="550" y="220" as="targetPoint" />
          </mxGeometry>
        </mxCell>
        <mxCell id="bAktfP8ZMkvanFYDNccY-21" value="SWITCH" style="rounded=0;whiteSpace=wrap;html=1;fontStyle=1;strokeWidth=2;labelBackgroundColor=#FFFFFF;labelBorderColor=none;" vertex="1" parent="1">
          <mxGeometry x="410" y="207.5" width="70" height="25" as="geometry" />
        </mxCell>
        <mxCell id="bAktfP8ZMkvanFYDNccY-23" value="" style="rounded=0;whiteSpace=wrap;html=1;glass=0;fillColor=none;dashed=1;dashPattern=12 12;fontStyle=1;strokeWidth=2;labelBackgroundColor=#FFFFFF;labelBorderColor=none;" vertex="1" parent="1">
          <mxGeometry x="385" y="170" width="120" height="95" as="geometry" />
        </mxCell>
        <mxCell id="bAktfP8ZMkvanFYDNccY-26" value="SWITCH" style="text;html=1;strokeColor=none;fillColor=none;align=center;verticalAlign=middle;whiteSpace=wrap;rounded=0;fontStyle=1;strokeWidth=2;labelBackgroundColor=#FFFFFF;labelBorderColor=none;" vertex="1" parent="1">
          <mxGeometry x="415" y="140" width="60" height="30" as="geometry" />
        </mxCell>
        <mxCell id="bAktfP8ZMkvanFYDNccY-27" value="" style="rounded=0;whiteSpace=wrap;html=1;glass=0;fillColor=none;dashed=1;dashPattern=12 12;fontStyle=1;strokeWidth=2;labelBackgroundColor=#FFFFFF;labelBorderColor=none;" vertex="1" parent="1">
          <mxGeometry x="570" y="85" width="300" height="225" as="geometry" />
        </mxCell>
        <mxCell id="bAktfP8ZMkvanFYDNccY-29" value="CARGADOR" style="text;html=1;strokeColor=none;fillColor=none;align=center;verticalAlign=middle;whiteSpace=wrap;rounded=0;fontStyle=1;strokeWidth=2;labelBackgroundColor=#FFFFFF;labelBorderColor=none;" vertex="1" parent="1">
          <mxGeometry x="650" y="50" width="110" height="30" as="geometry" />
        </mxCell>
      </root>
    </mxGraphModel>
  </diagram>
</mxfile>
